<?xml version="1.0" encoding="UTF-8" standalone="no"?>
<svg width="17px" height="16px" viewBox="0 0 17 16" version="1.1" xmlns="http://www.w3.org/2000/svg" xmlns:xlink="http://www.w3.org/1999/xlink">
    <!-- Generator: Sketch 3.8.1 (29687) - http://www.bohemiancoding.com/sketch -->
    <title>Pin 5</title>
    <desc>Created with Sketch.</desc>
    <defs></defs>
    <g id="Page-1" stroke="none" stroke-width="1" fill="none" fill-rule="evenodd">
        <g id="Reader-vertical" transform="translate(-59.000000, -14.000000)" fill="#948784">
            <path d="M59.6315533,29.9650782 L62.7640435,25.4994332 L62.447049,25.1824387 L60.4780048,23.2133945 C59.9457148,22.6811045 59.9400511,21.8001894 60.4798898,21.2603507 L61.4604172,20.2798232 C62.004745,19.7354955 62.8746635,19.7391406 63.4134611,20.2779383 L64.3948525,21.2593297 L68.3087942,17.345388 C67.7715814,16.8081752 67.7679345,15.9292768 68.3077732,15.3894381 L69.2883006,14.4089107 C69.8326284,13.864583 70.6998079,13.8654891 71.2352268,14.4009081 L75.1672158,18.332897 C75.6954049,18.8610862 75.6990519,19.7399845 75.1592132,20.2798232 L74.1786858,21.2603507 C73.634358,21.8046784 72.7671785,21.8037723 72.2317595,21.2683533 L68.3087942,25.1732714 L69.2901856,26.1546627 C69.8224756,26.6869528 69.8281393,27.5678679 69.2883006,28.1077066 L68.3077732,29.088234 C67.7634455,29.6325618 66.893527,29.6289167 66.3547293,29.090119 L64.3856883,27.121078 L64.0686907,26.8040804 L59.6315533,29.9650782 Z" id="Pin-5"></path>
        </g>
    </g>
</svg>