<?xml version="1.0" encoding="UTF-8" standalone="no"?>
<svg width="14px" height="18px" viewBox="0 0 14 18" version="1.1" xmlns="http://www.w3.org/2000/svg" xmlns:xlink="http://www.w3.org/1999/xlink">
    <!-- Generator: Sketch 3.8.1 (29687) - http://www.bohemiancoding.com/sketch -->
    <title>Blendle 2</title>
    <desc>Created with Sketch.</desc>
    <defs></defs>
    <g id="Page-1" stroke="none" stroke-width="1" fill="none" fill-rule="evenodd">
        <g id="Reader-vertical" transform="translate(-714.000000, -13.000000)" fill="#948784">
            <g id="Blendle-2" transform="translate(715.000000, 13.000000)">
                <path d="M9.35414484,10.798506 C9.35414484,9.564786 9.09450595,8.605206 8.57576984,7.919586 C8.05703373,7.199946 7.34708929,6.839946 6.44864484,6.839946 C5.47960317,6.839946 4.73643651,7.183026 4.21733929,7.867926 C3.69860317,8.587926 3.43896429,9.565146 3.43896429,10.798506 C3.43896429,12.238506 3.68054762,13.284126 4.16497817,13.934826 C4.68443651,14.654466 5.4104504,15.014106 6.34500595,15.014106 C7.31260317,15.014106 8.05667262,14.654466 8.57558929,13.934826 C9.09468651,13.214466 9.35414484,12.169746 9.35414484,10.798506 M3.4393254,1.750626 L3.4393254,5.863626 C3.81939484,5.212566 4.37351984,4.681026 5.09989484,4.269906 C5.72208929,3.927546 6.48331151,3.755646 7.38283929,3.755646 C9.0082004,3.755646 10.3401587,4.423626 11.377631,5.761026 C12.4154643,7.097706 12.9342004,8.828406 12.9342004,10.953306 C12.9342004,13.079106 12.4154643,14.809986 11.377631,16.146486 C10.8588948,16.797726 10.1585198,17.269506 9.27614484,17.560206 C8.39376984,17.851086 7.51988095,17.997606 6.65556151,17.997606 C4.99571429,17.997606 3.45611706,17.569746 2.03839484,16.711686 C0.619769841,15.855786 -0.0887301587,14.210226 -0.0887301587,11.776266 L-0.0887301587,0.003366 L1.67493651,0.003366 C2.15918651,0.003366 2.57410317,0.174546 2.92040873,0.517086 C3.26599206,0.859266 3.4393254,1.271106 3.4393254,1.750626" id="Shape"></path>
            </g>
        </g>
    </g>
</svg>