<svg width="17" height="16" viewBox="0 0 17 16" xmlns="http://www.w3.org/2000/svg"><title>Pin 5</title><path d="M.632 15.965L3.764 11.5l-.317-.317-1.969-1.969A1.387 1.387 0 0 1 1.48 7.26l.98-.98a1.377 1.377 0 0 1 1.953-.002l.982.981 3.914-3.914a1.386 1.386 0 0 1-.001-1.956l.98-.98A1.373 1.373 0 0 1 12.235.4l3.932 3.932a1.383 1.383 0 0 1-.008 1.947l-.98.98a1.373 1.373 0 0 1-1.947.008l-3.923 3.905.981.982a1.387 1.387 0 0 1-.002 1.953l-.98.98a1.377 1.377 0 0 1-1.953.002l-1.97-1.969-.316-.317-4.437 3.161z" fill="#948784" fill-rule="evenodd"/></svg>