<svg width="14" height="18" viewBox="0 0 14 18" xmlns="http://www.w3.org/2000/svg"><title>Blendle 2</title><path d="M10.354 10.799c0-1.234-.26-2.194-.778-2.88-.519-.72-1.229-1.08-2.127-1.08-.97 0-1.713.344-2.232 1.029-.518.72-.778 1.697-.778 2.93 0 1.44.242 2.486.726 3.137.52.72 1.245 1.08 2.18 1.08.968 0 1.712-.36 2.23-1.08.52-.72.78-1.765.78-3.136M4.438 1.75v4.113c.38-.651.935-1.183 1.66-1.594.623-.342 1.384-.514 2.284-.514 1.625 0 2.957.668 3.995 2.005 1.037 1.337 1.556 3.067 1.556 5.192 0 2.126-.519 3.857-1.556 5.193-.52.652-1.22 1.124-2.102 1.414a8.337 8.337 0 0 1-2.62.438 8.76 8.76 0 0 1-4.618-1.286C1.62 15.856.911 14.21.911 11.776V.003h1.764c.484 0 .9.172 1.245.514.346.342.52.754.52 1.234" fill="#948784" fill-rule="evenodd"/></svg>