<svg width="18" height="15" viewBox="0 0 18 15" xmlns="http://www.w3.org/2000/svg"><title>Imported Layers 3</title><path d="M17.806 1.77c-.655.3-1.359.503-2.098.594A3.768 3.768 0 0 0 17.315.276a7.185 7.185 0 0 1-2.32.916A3.594 3.594 0 0 0 12.328 0c-2.017 0-3.653 1.69-3.653 3.775 0 .296.032.584.094.86-3.036-.157-5.728-1.66-7.53-3.944a3.853 3.853 0 0 0-.494 1.898c0 1.31.644 2.464 1.625 3.142a3.548 3.548 0 0 1-1.655-.472v.047c0 1.83 1.26 3.355 2.93 3.702a3.54 3.54 0 0 1-1.65.064c.465 1.5 1.815 2.592 3.413 2.622A7.181 7.181 0 0 1 0 13.257a10.093 10.093 0 0 0 5.6 1.697c6.72 0 10.394-5.753 10.394-10.742 0-.163-.003-.326-.01-.488a7.562 7.562 0 0 0 1.822-1.954" fill="#948784" fill-rule="evenodd"/></svg>