<svg width="17" height="18" viewBox="0 0 17 18" xmlns="http://www.w3.org/2000/svg"><title>Imported Layers 4</title><path d="M3.907 1.95c0 1.028-.722 1.86-1.912 1.86C.877 3.81.154 2.978.154 1.95.154.897.9.09 2.042.09c1.143 0 1.842.807 1.865 1.86zM.247 5.28h3.544v11.97H.247V5.28zm5.665 3.818c0-1.493-.047-2.741-.093-3.819h3.077l.164 1.665h.07a4.055 4.055 0 0 1 3.52-1.934c2.332 0 4.08 1.64 4.08 5.165v7.076h-3.544v-6.635c0-1.542-.513-2.595-1.795-2.595-.98 0-1.562.71-1.818 1.396-.094.244-.117.587-.117.93v6.904H5.912V9.098" fill="#948784" fill-rule="evenodd"/></svg>